<svg width="25" height="14" viewBox="0 0 25 14" fill="none" xmlns="http://www.w3.org/2000/svg">
<path d="M0 6.83429L6.93282 3.24248V4.38004C6.93282 4.48155 6.90894 4.57112 6.86116 4.64875C6.81339 4.72041 6.72979 4.7861 6.61036 4.84581L2.58861 6.88804C2.46918 6.95372 2.3408 7.01045 2.20345 7.05822C2.07208 7.10002 1.93176 7.13884 1.78247 7.17466C1.93176 7.20452 2.07208 7.24334 2.20345 7.29111C2.3408 7.33888 2.46918 7.39262 2.58861 7.45234L6.61036 9.4856C6.72979 9.54532 6.81339 9.61399 6.86116 9.69162C6.90894 9.76925 6.93282 9.85583 6.93282 9.95138V11.0979L0 7.49712V6.83429Z" fill="#3A3A3A"/>
<path d="M10.5081 13.382C10.4245 13.591 10.2991 13.7462 10.1319 13.8477C9.97069 13.9492 9.80349 14 9.63032 14H8.95853L14.3418 0.591171C14.4194 0.400085 14.5299 0.253786 14.6732 0.152271C14.8165 0.050757 14.9867 0 15.1837 0H15.8555L10.5081 13.382Z" fill="#3A3A3A"/>
<path d="M17.8807 11.0979V9.95138C17.8807 9.85583 17.9046 9.76925 17.9523 9.69162C18.0001 9.61399 18.0837 9.54532 18.2031 9.4856L22.2249 7.45234C22.3443 7.39262 22.4667 7.33888 22.5921 7.29111C22.7235 7.24334 22.8638 7.20452 23.0131 7.17466C22.8638 7.13884 22.7235 7.10002 22.5921 7.05822C22.4667 7.01045 22.3443 6.95372 22.2249 6.88804L18.2031 4.84581C18.0837 4.7861 18.0001 4.72041 17.9523 4.64875C17.9046 4.57112 17.8807 4.48155 17.8807 4.38004V3.24248L24.8045 6.83429V7.49712L17.8807 11.0979Z" fill="#3A3A3A"/>
</svg>
