<svg width="17" height="14" viewBox="0 0 17 14" fill="none" xmlns="http://www.w3.org/2000/svg">
<path d="M0.804688 4.45906L4.71766 2.48356V3.10922C4.71766 3.16505 4.70418 3.21431 4.67722 3.25701C4.65025 3.29642 4.60307 3.33255 4.53566 3.36539L2.26573 4.48861C2.19833 4.52474 2.12586 4.55594 2.04835 4.58222C1.9742 4.60521 1.89499 4.62655 1.81074 4.64626C1.89499 4.66268 1.9742 4.68403 2.04835 4.7103C2.12586 4.73658 2.19833 4.76614 2.26573 4.79898L4.53566 5.91728C4.60307 5.95012 4.65025 5.98789 4.67722 6.03059C4.70418 6.07328 4.71766 6.1209 4.71766 6.17345V6.80403L0.804688 4.82361V4.45906Z" fill="#3A3A3A"/>
<path d="M6.7356 8.06027C6.68842 8.17522 6.61764 8.26061 6.52327 8.31645C6.43227 8.37228 6.3379 8.40019 6.24016 8.40019H5.861L8.89937 1.02534C8.94318 0.920242 9.00553 0.839777 9.08642 0.783944C9.16731 0.728112 9.26336 0.700195 9.37458 0.700195H9.75375L6.7356 8.06027Z" fill="#3A3A3A"/>
<path d="M10.8968 6.80403V6.17345C10.8968 6.1209 10.9103 6.07328 10.9372 6.03059C10.9642 5.98789 11.0114 5.95012 11.0788 5.91728L13.3487 4.79898C13.4161 4.76614 13.4852 4.73658 13.556 4.7103C13.6301 4.68403 13.7093 4.66268 13.7936 4.64626C13.7093 4.62655 13.6301 4.60521 13.556 4.58222C13.4852 4.55594 13.4161 4.52474 13.3487 4.48861L11.0788 3.36539C11.0114 3.33255 10.9642 3.29642 10.9372 3.25701C10.9103 3.21431 10.8968 3.16505 10.8968 3.10922V2.48356L14.8047 4.45906V4.82361L10.8968 6.80403Z" fill="#3A3A3A"/>
<mask id="path-2-inside-1" fill="white">
<path fill-rule="evenodd" clip-rule="evenodd" d="M2.9043 9.09991V13V14H3.9043H15.9043H16.9043V13V1V0H15.9043H11.3043V1H15.9043V13H3.9043V9.09991H2.9043Z"/>
</mask>
<path fill-rule="evenodd" clip-rule="evenodd" d="M2.9043 9.09991V13V14H3.9043H15.9043H16.9043V13V1V0H15.9043H11.3043V1H15.9043V13H3.9043V9.09991H2.9043Z" fill="#3A3A3A"/>
<path d="M2.9043 9.09991V8.09991H1.9043V9.09991H2.9043ZM2.9043 14H1.9043V15H2.9043V14ZM16.9043 14V15H17.9043V14H16.9043ZM16.9043 0H17.9043V-1H16.9043V0ZM11.3043 0V-1H10.3043V0H11.3043ZM11.3043 1H10.3043V2H11.3043V1ZM15.9043 1H16.9043V0H15.9043V1ZM15.9043 13V14H16.9043V13H15.9043ZM3.9043 13H2.9043V14H3.9043V13ZM3.9043 9.09991H4.9043V8.09991H3.9043V9.09991ZM1.9043 9.09991V13H3.9043V9.09991H1.9043ZM1.9043 13V14H3.9043V13H1.9043ZM2.9043 15H3.9043V13H2.9043V15ZM3.9043 15H15.9043V13H3.9043V15ZM15.9043 15H16.9043V13H15.9043V15ZM17.9043 14V13H15.9043V14H17.9043ZM17.9043 13V1H15.9043V13H17.9043ZM17.9043 1V0H15.9043V1H17.9043ZM16.9043 -1H15.9043V1H16.9043V-1ZM15.9043 -1H11.3043V1H15.9043V-1ZM10.3043 0V1H12.3043V0H10.3043ZM15.9043 0H11.3043V2H15.9043V0ZM16.9043 13V1H14.9043V13H16.9043ZM3.9043 14H15.9043V12H3.9043V14ZM2.9043 9.09991V13H4.9043V9.09991H2.9043ZM3.9043 8.09991H2.9043V10.0999H3.9043V8.09991Z" fill="#3A3A3A" mask="url(#path-2-inside-1)"/>
</svg>
